<svg width="103" height="101" viewBox="0 0 103 101" fill="none" xmlns="http://www.w3.org/2000/svg">
<rect width="100" height="100" fill="white"/>
<path d="M2.83473 51.2039L3.45675 6.40824L13.4398 6.54687L29.7485 39.7365L29.8765 39.7383L47.1005 7.01428L57.0836 7.1529L56.4616 51.9486L48.2064 51.834L48.6533 19.6451L48.5253 19.6433L31.312 51.5994L27.9843 51.5532L11.6649 19.1314L11.5369 19.1297L11.0899 51.3186L2.83473 51.2039Z" fill="#1E1E1E"/>
<path d="M85.4563 91.7823C74.4219 96.7376 64.9717 94.5972 59.3755 85.8851L66.1609 81.1542C70.265 87.1687 75.4817 88.4742 82.6044 85.2756C88.2676 82.7324 90.7362 79.1683 89.1893 75.7237C87.7473 72.5126 84.3919 71.9148 74.1913 74.0401C61.647 76.7268 55.806 75.2808 53.0793 69.2089C50.1166 62.6116 54.0826 54.7269 63.5406 50.4795C72.7068 46.3632 81.8889 48.0628 86.9058 54.8601L80.3683 59.8305C76.9399 55.4769 71.9973 54.4693 66.3925 56.9863C61.6051 59.1362 59.2211 62.7324 60.5583 65.71C61.6857 68.2204 64.5072 68.567 74.4218 66.4297C86.9661 63.743 93.5745 65.3355 96.6945 72.2831C99.998 79.6394 95.615 87.2203 85.4563 91.7823Z" fill="#1E1E1E"/>
</svg>
